<svg width="51" height="52" viewBox="0 0 51 52" fill="none" xmlns="http://www.w3.org/2000/svg">
<g clip-path="url(#clip0_1_1318)">
<path d="M27.8389 13.1375C27.8389 13.1375 27.2165 12.8937 25.9718 12.4062C24.7271 11.9187 22.6729 11.675 19.8092 11.675C16.9454 11.675 14.2688 12.1625 11.7794 13.1375C9.29003 14.1125 7.31067 15.4343 5.84136 17.1031C4.37205 18.7719 3.6374 20.5625 3.6374 22.475C3.6374 24.0125 4.1334 25.4937 5.12542 26.9187C6.11744 28.3437 7.51188 29.5812 9.30874 30.6312L12.0321 32.2062L11.0495 34.5687C11.6858 34.1937 12.2661 33.8281 12.7902 33.4719L14.0255 32.6L15.5135 32.8812C16.9735 33.1437 18.4054 33.275 19.8092 33.275C22.6729 33.275 25.3495 32.7875 27.8389 31.8125C30.3283 30.8375 32.3076 29.5156 33.777 27.8469C35.2463 26.1781 35.9809 24.3875 35.9809 22.475C35.9809 20.5625 35.2463 18.7719 33.777 17.1031C32.3076 15.4343 30.3283 14.1125 27.8389 13.1375ZM9.8843 10.0015C9.8843 10.0015 10.6447 9.68044 12.1655 9.03826C13.6863 8.39607 16.2342 8.07497 19.8092 8.07497C23.3842 8.07497 26.6925 8.71716 29.734 10.0015C32.7756 11.2859 35.1761 13.0344 36.9355 15.2468C38.6949 17.4594 39.5746 19.8687 39.5746 22.475C39.5746 25.0812 38.6949 27.4906 36.9355 29.7031C35.1761 31.9156 32.7756 33.664 29.734 34.9484C26.6925 36.2328 23.3842 36.875 19.8092 36.875C18.1995 36.875 16.5523 36.725 14.8678 36.425C12.5468 38.075 9.94513 39.275 7.06266 40.025C6.38884 40.1937 5.584 40.3437 4.64813 40.475H4.5639C4.35801 40.475 4.16616 40.4 3.98835 40.25C3.81053 40.1 3.70291 39.9031 3.66547 39.6594C3.64675 39.6031 3.6374 39.5422 3.6374 39.4765C3.6374 39.4109 3.64208 39.35 3.65143 39.2937C3.66079 39.2375 3.67951 39.1812 3.70759 39.125C3.73566 39.0687 3.75906 39.0219 3.77778 38.9844C3.79649 38.9468 3.82925 38.8953 3.87604 38.8297C3.92283 38.764 3.96027 38.7172 3.98835 38.689C4.01642 38.6609 4.05854 38.614 4.11469 38.5484C4.17084 38.4828 4.20827 38.4406 4.22699 38.4219C4.32058 38.3094 4.53583 38.075 4.87274 37.7187C5.20965 37.3625 5.45298 37.0859 5.60271 36.889C5.75245 36.6922 5.96302 36.4203 6.23442 36.0734C6.50583 35.7265 6.73979 35.3656 6.93632 34.9906C7.13285 34.6156 7.32471 34.2031 7.51188 33.7531C5.19093 32.4031 3.36599 30.7437 2.03707 28.775C0.708135 26.8062 0.0436707 24.7062 0.0436707 22.475C0.0436707 19.8687 0.923385 17.4594 2.68281 15.2468C4.44224 13.0344 6.84274 11.2859 9.8843 10.0015ZM42.8876 40.9531C43.0748 41.4031 43.2666 41.8156 43.4632 42.1906C43.6597 42.5656 43.8937 42.9265 44.1651 43.2734C44.4365 43.6203 44.647 43.8922 44.7968 44.089C44.9465 44.2859 45.1898 44.5625 45.5268 44.9187C45.8637 45.275 46.0789 45.5094 46.1725 45.6219C46.1912 45.6406 46.2287 45.6828 46.2848 45.7484C46.341 45.814 46.3831 45.8609 46.4111 45.889C46.4392 45.9172 46.4767 45.964 46.5235 46.0297C46.5702 46.0953 46.603 46.1469 46.6217 46.1844C46.6404 46.2219 46.6638 46.2687 46.6919 46.325C46.72 46.3812 46.7387 46.4375 46.7481 46.4937C46.7574 46.55 46.7621 46.6109 46.7621 46.6765C46.7621 46.7422 46.7527 46.8031 46.734 46.8594C46.6779 47.1219 46.5562 47.3281 46.369 47.4781C46.1819 47.6281 45.976 47.6937 45.7514 47.675C44.8155 47.5437 44.0107 47.3937 43.3368 47.225C40.4544 46.475 37.8527 45.275 35.5317 43.625C33.8471 43.925 32.2 44.075 30.5903 44.075C25.5179 44.075 21.1007 42.8375 17.3385 40.3625C18.4241 40.4375 19.2476 40.475 19.8092 40.475C22.8226 40.475 25.7145 40.0531 28.4846 39.2094C31.2548 38.3656 33.7255 37.1562 35.8967 35.5812C38.2364 33.8562 40.0332 31.8687 41.2873 29.6187C42.5413 27.3687 43.1684 24.9875 43.1684 22.475C43.1684 21.0312 42.9531 19.6062 42.5226 18.2C44.9372 19.5312 46.8463 21.2 48.2501 23.2062C49.6539 25.2125 50.3558 27.3687 50.3558 29.675C50.3558 31.925 49.6914 34.0297 48.3624 35.989C47.0335 37.9484 45.2086 39.6031 42.8876 40.9531Z" fill="#10AFF3"/>
</g>
<defs>
<clipPath id="clip0_1_1318">
<rect width="50.4" height="50.4" fill="white" transform="matrix(1 0 0 -1 0 51.375)"/>
</clipPath>
</defs>
</svg>
