<svg width="144" height="24" viewBox="0 0 144 24" fill="none" xmlns="http://www.w3.org/2000/svg">
<path d="M64.5994 21.9265C64.5994 22.7771 64.977 23.083 65.5887 22.8249C66.2673 22.5382 66.9124 22.1607 67.5719 21.8213C68.9148 21.1236 70.2529 20.4164 71.6053 19.7377C71.7774 19.6517 72.0641 19.6708 72.2457 19.7569C72.9577 20.0866 73.6459 20.4594 74.3388 20.8273C75.0222 21.1905 75.7008 21.5633 76.389 21.9265C76.929 22.2132 77.4738 22.4952 78.0186 22.7724C78.3436 22.9396 78.6924 22.9731 78.9983 22.7532C79.3232 22.5143 79.242 22.1368 79.1942 21.8213C79.0413 20.7365 78.8549 19.6613 78.6637 18.5813C78.4678 17.4773 78.2528 16.3734 78.0568 15.2695C78.0425 15.1835 78.0951 15.0544 78.162 14.9875C78.7354 14.4332 79.328 13.8979 79.8919 13.334C80.9719 12.2683 82.0329 11.1883 83.1129 10.1274C83.3423 9.90277 83.3518 9.65905 83.2897 9.38665C83.218 9.07125 82.9791 8.90876 82.6876 8.85619C81.9851 8.73672 81.2778 8.63636 80.5705 8.54079C79.1942 8.35441 77.8131 8.19193 76.4368 7.98166C76.0162 7.91953 75.6626 7.80962 75.4236 7.28394C74.5682 5.37716 73.5981 3.52772 72.6758 1.64961C72.3365 0.956674 71.6531 0.870654 71.2708 1.51103C70.8646 2.19441 70.5301 2.91602 70.1764 3.6233C69.5313 4.91838 68.8957 6.22302 68.2457 7.5181C68.1311 7.74749 67.9638 7.91953 67.6532 7.92909C67.2326 7.94342 66.8169 8.02467 66.4011 8.08201C65.3497 8.23016 64.3031 8.3783 63.2566 8.54079C62.5015 8.65548 61.7464 8.77495 60.9961 8.93744C60.4991 9.04735 60.3223 9.53958 60.6138 9.95534C60.8241 10.2516 61.0869 10.5049 61.3402 10.7678C61.8086 11.2552 62.2817 11.7474 62.7691 12.2205C63.6914 13.1238 64.6329 14.0078 65.5504 14.9158C65.6556 15.021 65.7081 15.2551 65.6842 15.4128C65.5743 16.1536 65.4262 16.8895 65.2972 17.6303C65.1777 18.3328 65.063 19.0352 64.9483 19.7425C64.8193 20.5358 64.695 21.3291 64.5947 21.936L64.5994 21.9265ZM122.118 21.9838C122.118 22.7867 122.386 23.0113 123.064 22.8249C123.318 22.758 123.557 22.6338 123.791 22.5143C124.57 22.1129 125.344 21.6971 126.123 21.2909C127.088 20.7843 128.058 20.2778 129.029 19.7712C129.311 19.6231 129.554 19.6278 129.855 19.7999C130.534 20.1917 131.246 20.5263 131.948 20.8847C132.56 21.1953 133.181 21.4868 133.784 21.807C134.41 22.1368 135.012 22.5143 135.643 22.8393C136.077 23.0639 136.856 22.8536 136.732 22.1368C136.57 21.1858 136.422 20.2348 136.269 19.2838C136.058 17.9887 135.867 16.6888 135.628 15.3985C135.58 15.15 135.628 15.0258 135.795 14.8728C136.34 14.371 136.876 13.8597 137.406 13.3388C137.927 12.8275 138.438 12.3066 138.954 11.7952C139.509 11.2409 140.077 10.6961 140.622 10.1274C141.081 9.64949 140.895 9.06647 140.249 8.9231C139.752 8.81319 139.251 8.72239 138.749 8.64114C138.008 8.52167 137.263 8.40698 136.517 8.30662C135.666 8.19193 134.816 8.11069 133.97 7.98166C133.707 7.94343 133.392 7.8574 133.224 7.67581C132.971 7.40819 132.804 7.04499 132.637 6.70569C132.187 5.79292 131.767 4.87059 131.322 3.95304C130.935 3.15497 130.529 2.36645 130.137 1.57315C129.874 1.04747 129.239 0.913664 128.919 1.33421C128.756 1.54448 128.618 1.77387 128.498 2.01281C128.121 2.75832 127.757 3.51339 127.394 4.26845C126.873 5.3437 126.357 6.41896 125.827 7.48465C125.76 7.61846 125.626 7.76183 125.492 7.81439C125.253 7.90997 124.99 7.95298 124.732 7.99121C123.839 8.12502 122.94 8.25405 122.047 8.3783C121.062 8.51211 120.073 8.62681 119.088 8.77973C118.792 8.82752 118.472 8.91354 118.238 9.08558C117.894 9.33886 117.989 9.89322 118.348 10.2086C118.505 10.3472 118.697 10.5193 118.845 10.6626C119.28 11.0736 119.695 11.4989 120.111 11.9242C120.584 12.4069 121.048 12.8944 121.526 13.3723C121.994 13.8406 122.467 14.3137 122.955 14.7581C123.198 14.978 123.251 15.2312 123.208 15.518C123.06 16.4642 122.907 17.4056 122.744 18.3471C122.606 19.1499 122.434 19.948 122.295 20.7509C122.219 21.1905 122.176 21.635 122.128 21.9838H122.118ZM35.8018 21.9599C35.8018 22.6529 36.0694 22.9731 36.5043 22.9109C36.7623 22.8727 37.03 22.7915 37.2594 22.672C37.8997 22.3422 38.521 21.9695 39.1566 21.6302C40.3704 20.9898 41.5843 20.3494 42.8172 19.7425C42.9988 19.6565 43.2999 19.6947 43.4958 19.7855C44.1983 20.1057 44.8865 20.4689 45.5746 20.8273C46.2198 21.1619 46.8554 21.5107 47.5053 21.8452C48.1791 22.1893 48.8482 22.5477 49.5411 22.8536C50.0095 23.0591 50.4635 22.7437 50.4109 22.2467C50.3201 21.3721 50.1767 20.5024 50.0333 19.6374C49.804 18.2324 49.5794 16.8274 49.3022 15.4272C49.2496 15.15 49.3404 15.0066 49.4886 14.8633C49.9999 14.3663 50.5399 13.8979 51.0465 13.3961C52.1504 12.3066 53.2543 11.217 54.3344 10.1035C54.6832 9.74507 54.5876 9.07603 54.0285 8.93744C53.7609 8.87053 53.4837 8.81796 53.2113 8.77973C52.2508 8.64114 51.2902 8.51211 50.3296 8.37353C49.4694 8.24927 48.6092 8.13936 47.7586 7.99599C47.4575 7.94342 47.0943 7.89086 46.8936 7.6997C46.6308 7.44642 46.4922 7.05933 46.3249 6.72003C46.0525 6.17523 45.8136 5.6161 45.5412 5.07131C45.1923 4.37359 44.81 3.68543 44.4612 2.98771C44.2365 2.53849 44.0502 2.06538 43.8303 1.61138C43.6822 1.30553 43.4337 1.06181 43.0944 1.07137C42.7551 1.08093 42.54 1.33421 42.3919 1.64961C42.0908 2.28999 41.7706 2.92558 41.4504 3.5564C40.8005 4.83714 40.1267 6.10833 39.5198 7.40819C39.386 7.69492 39.3143 7.83351 38.975 7.87652C37.9141 8.01033 36.8579 8.21104 35.8018 8.3783C34.6166 8.56468 33.4315 8.75584 32.2463 8.9231C31.7302 8.99478 31.5486 9.59692 31.7923 9.91711C32.0073 10.1943 32.2558 10.4476 32.5091 10.6961C33.9476 12.1106 35.3908 13.5204 36.8197 14.9445C36.9105 15.0353 36.9487 15.2408 36.9296 15.3794C36.834 16.0054 36.7002 16.6267 36.5903 17.2527C36.4374 18.1034 36.2892 18.9588 36.1507 19.8094C36.0264 20.5788 35.9117 21.353 35.8161 21.9743L35.8018 21.9599ZM93.3541 22.0651C93.2919 22.7389 93.8654 23.0639 94.4293 22.8249C94.7638 22.6815 95.0697 22.4713 95.3899 22.304C97.0482 21.4438 98.7064 20.5788 100.37 19.733C100.508 19.6613 100.704 19.6326 100.847 19.6756C101.086 19.7425 101.311 19.8716 101.536 19.9862C102.085 20.2682 102.63 20.5549 103.175 20.8417C103.7 21.1141 104.231 21.3817 104.757 21.6589C105.459 22.0316 106.138 22.4713 106.869 22.7771C107.514 23.0447 108.073 22.9301 107.997 22.0555C107.934 21.3196 107.81 20.5884 107.686 19.8572C107.442 18.4044 107.175 16.9517 106.931 15.4989C106.902 15.3316 106.897 15.1022 106.988 14.9827C107.261 14.6291 107.576 14.3041 107.901 13.9935C108.656 13.2671 109.426 12.5598 110.181 11.8382C110.711 11.3317 111.232 10.8108 111.758 10.2946C112.006 10.0509 112.188 9.77374 112.111 9.40577C112.044 9.07125 111.767 8.93744 111.476 8.87053C111.117 8.78929 110.749 8.7415 110.381 8.68893C109.55 8.57424 108.713 8.4691 107.877 8.35441C107.017 8.23494 106.152 8.14892 105.306 7.9721C104.948 7.89564 104.475 7.96254 104.312 7.39863C104.174 6.93508 103.877 6.51931 103.657 6.07488C103.309 5.37238 102.969 4.6651 102.616 3.9626C102.19 3.12152 101.779 2.27565 101.321 1.45368C101.048 0.956675 100.503 0.942338 100.183 1.40589C99.9251 1.77865 99.7148 2.18485 99.5093 2.59106C99.0362 3.51816 98.5822 4.45005 98.1186 5.37716C97.7507 6.11311 97.3875 6.85384 97.0004 7.58023C96.9383 7.69492 96.771 7.7905 96.6372 7.81439C96.0016 7.93865 95.3612 8.04378 94.7208 8.13936C93.4592 8.32574 92.1928 8.493 90.9312 8.67938C90.5441 8.73672 90.1474 8.79407 89.7747 8.91354C89.3063 9.06169 89.2203 9.33886 89.335 9.81197C89.4402 10.2516 89.7986 10.4285 90.0758 10.7008C91.3422 11.929 92.5847 13.1811 93.8654 14.3902C94.3529 14.8489 94.6253 15.2551 94.4246 16.0054C94.1235 17.1285 94.004 18.3041 93.8033 19.4558C93.6551 20.3208 93.4974 21.1858 93.3445 22.0507L93.3541 22.0651ZM7.00414 21.9791C7.00892 22.6433 7.24309 22.9396 7.73054 22.8918C7.9647 22.8679 8.20843 22.7962 8.42348 22.6863C9.01128 22.3853 9.57519 22.0412 10.1582 21.7305C11.1331 21.2192 12.1128 20.7222 13.0877 20.2204C13.1641 20.1822 13.231 20.1153 13.3123 20.0723C13.8475 19.7855 14.3445 19.4319 14.9992 19.8955C15.5249 20.2634 16.1271 20.5215 16.7005 20.8226C17.2836 21.1284 17.8666 21.4247 18.4544 21.7162C19.2142 22.0985 19.9597 22.5047 20.7435 22.8345C21.2596 23.0495 21.6467 22.7437 21.6132 22.1845C21.5798 21.6015 21.4842 21.0185 21.3886 20.4402C21.1497 19.0114 20.9251 17.5777 20.6383 16.1536C20.495 15.4511 20.4376 14.8442 21.1401 14.4045C21.3313 14.285 21.4747 14.0795 21.6419 13.917C22.2871 13.2958 22.937 12.6745 23.5821 12.0485C24.1795 11.4655 24.7482 10.849 25.3695 10.2946C25.6514 10.0414 25.7613 9.76419 25.7183 9.42966C25.6801 9.09514 25.4077 8.94221 25.1066 8.86575C24.9107 8.81796 24.7052 8.78929 24.5045 8.76062C23.4913 8.62203 22.483 8.493 21.4699 8.35441C20.624 8.23494 19.7734 8.13936 18.9371 7.96732C18.593 7.90041 18.1677 7.93387 17.9622 7.49421C17.5129 6.54799 17.0207 5.6161 16.5572 4.67466C16.0458 3.63764 15.5584 2.59106 15.0184 1.56837C14.7221 1.00924 14.0482 0.808528 13.6659 1.50625C13.4604 1.88378 13.2502 2.26131 13.0638 2.6484C12.7101 3.37958 12.3804 4.12508 12.0268 4.85626C11.7209 5.48229 11.4246 6.11311 11.071 6.71047C10.789 7.19792 10.7604 7.87652 9.91927 7.94343C8.70065 8.039 7.49637 8.27317 6.28731 8.44521C5.37932 8.57424 4.46655 8.67938 3.56811 8.86097C3.31961 8.91354 2.98031 9.17638 2.93252 9.39621C2.8465 9.86932 3.55378 10.5049 3.70192 10.6531C4.23238 11.1931 4.7485 11.7474 5.28374 12.2827C6.1535 13.1429 7.03282 13.984 7.91213 14.8346C8.09851 15.0162 8.17497 15.193 8.10807 15.4797C7.9647 16.0867 7.88346 16.7079 7.7831 17.3244C7.60628 18.3758 7.42946 19.4319 7.25265 20.4833C7.16663 20.9994 7.08061 21.5107 7.00892 21.9695L7.00414 21.9791Z" fill="#FBBD07"/>
</svg>
