<svg width="130" height="48" viewBox="0 0 130 48" fill="none" xmlns="http://www.w3.org/2000/svg">
<path d="M27.5041 18.6145C29.6615 18.6145 31.8189 18.6145 33.9757 18.6145C34.0728 18.6145 34.1698 18.6202 34.2663 18.6145C34.4593 18.6021 34.5388 18.6997 34.5584 18.8808C34.5992 19.2514 34.6658 19.6199 34.6916 19.991C34.8562 22.3776 34.5775 24.7037 33.7161 26.9473C32.9497 28.9437 31.6929 30.5829 30.0754 31.9614C28.0646 33.6755 25.7451 34.6917 23.1325 35.0659C20.2118 35.4845 17.3504 35.277 14.633 34.0966C9.29221 31.7772 6.01277 27.755 5.16426 21.9652C4.52066 17.5719 5.78464 13.6375 8.64499 10.243C10.8432 7.63401 13.6302 5.94939 16.9432 5.14114C18.6371 4.72773 20.3537 4.66321 22.0864 4.82579C24.7377 5.07508 27.1304 5.99533 29.2806 7.55711C29.773 7.91478 30.2416 8.30187 30.6886 8.7158C30.8398 8.85567 30.8697 8.96251 30.7107 9.12457C29.8576 9.99217 29.0153 10.8701 28.1637 11.7392C27.9877 11.9189 27.9774 11.908 27.7296 11.6871C26.6742 10.7488 25.4917 10.0237 24.1575 9.55089C22.811 9.07399 21.4216 8.88664 19.9986 8.95632C17.0098 9.10238 14.4885 10.2729 12.4602 12.4685C11.0377 14.0081 10.1242 15.8249 9.76497 17.8909C9.1833 21.239 9.878 24.3022 11.9931 26.9855C13.6111 29.0381 15.7365 30.3134 18.3021 30.8223C20.5643 31.2708 22.7914 31.1186 24.9276 30.2262C26.8151 29.4376 28.3485 28.2015 29.3497 26.3821C29.9159 25.353 30.2184 24.233 30.3908 23.0764C30.4284 22.8255 30.4104 22.8085 30.1188 22.8059C29.2893 22.7982 28.4594 22.7956 27.63 22.7956C25.4453 22.7946 23.26 22.7956 21.0753 22.7956C20.9648 22.7956 20.8539 22.7904 20.7434 22.7956C20.554 22.8044 20.4704 22.7301 20.4714 22.5293C20.4771 21.3123 20.4766 20.0953 20.4714 18.8788C20.4704 18.6811 20.5488 18.6088 20.7419 18.6135C21.0871 18.6217 21.4335 18.615 21.7787 18.615C23.6868 18.615 25.5955 18.615 27.5036 18.615L27.5041 18.6145Z" fill="#4486F4"/>
<path d="M93.5618 17.7655C93.6851 17.6566 93.6402 17.5239 93.6423 17.4063C93.649 17.1023 93.65 16.7978 93.6423 16.4938C93.6382 16.3131 93.682 16.2104 93.8931 16.2114C95.0957 16.2171 96.2988 16.2161 97.5019 16.2125C97.6748 16.2125 97.7604 16.2796 97.7568 16.455C97.7548 16.5516 97.7568 16.6486 97.7568 16.7456C97.7568 22.3177 97.7604 27.8892 97.7548 33.4613C97.7532 34.9998 97.6402 36.5275 97.1607 38.0042C96.0701 41.3646 93.7579 43.3145 90.2932 43.905C88.7624 44.1656 87.2372 44.1218 85.7338 43.6882C83.7209 43.1071 82.1168 41.9437 80.8611 40.2828C80.4513 39.7409 80.1044 39.1598 79.8231 38.5404C79.6931 38.2535 79.6931 38.2452 79.9919 38.1198C81.0494 37.6759 82.1085 37.2351 83.1686 36.798C83.453 36.6808 83.4613 36.686 83.5996 36.9688C84.0775 37.9453 84.7402 38.7629 85.6563 39.359C86.6416 40 87.7234 40.2421 88.8945 40.1507C89.7342 40.0852 90.5342 39.9035 91.263 39.4725C92.4289 38.7835 93.0756 37.7224 93.4044 36.4408C93.6717 35.3972 93.6495 34.3309 93.6413 33.2662C93.6408 33.1996 93.6531 33.1118 93.5793 33.0814C93.4384 33.0226 93.3889 33.1609 93.3202 33.2326C92.2317 34.3722 90.8754 34.9756 89.3378 35.1784C87.5722 35.4117 85.884 35.0907 84.317 34.2633C81.2987 32.67 79.4969 30.1663 79.0175 26.7888C78.6103 23.9187 79.3803 21.3309 81.2182 19.0857C82.5441 17.4661 84.222 16.357 86.2664 15.8641C88.3815 15.3536 90.4114 15.5508 92.2854 16.7425C92.6359 16.9655 92.96 17.2236 93.2511 17.5229C93.3424 17.6168 93.4157 17.7443 93.5608 17.7675L93.5618 17.7655ZM93.9288 25.2859C93.9411 24.5917 93.8039 23.7639 93.4916 22.9695C92.9012 21.4707 91.9159 20.3435 90.3773 19.7768C88.2447 18.9918 85.7936 19.7975 84.4238 21.7066C83.5237 22.9613 83.1707 24.3687 83.2693 25.8959C83.388 27.7339 84.124 29.2652 85.628 30.3599C87.8788 31.9975 90.9853 31.6404 92.7153 29.3287C93.5773 28.1767 93.937 26.8678 93.9293 25.2854L93.9288 25.2859Z" fill="#4486F4"/>
<path d="M46.1274 15.5895C49.6551 15.7309 52.5903 17.2375 54.4999 20.486C55.5766 22.3172 55.9317 24.3274 55.7288 26.4379C55.5296 28.5101 54.775 30.3537 53.3924 31.9124C51.4383 34.1162 48.9522 35.2274 46.0232 35.229C42.3138 35.2305 39.3884 33.6837 37.4333 30.4967C35.3157 27.0453 35.4783 21.7432 38.991 18.3492C40.5203 16.8716 42.3572 16.0096 44.4609 15.7056C44.9553 15.6339 45.4523 15.6262 46.1279 15.589L46.1274 15.5895ZM51.4528 25.2069C51.4626 24.5112 51.2855 23.6245 50.9129 22.7765C49.2928 19.0867 44.4253 18.3337 41.8214 21.3706C40.0883 23.3922 39.9004 26.6226 41.3853 28.8812C43.4462 32.0151 47.8182 32.2231 50.1609 29.291C51.0584 28.1679 51.4497 26.8652 51.4528 25.2074V25.2069Z" fill="#EA4537"/>
<path d="M67.3362 35.2344C63.2527 35.077 60.1373 33.333 58.3598 29.5663C56.59 25.8146 57.4612 21.1933 60.4088 18.3407C61.9582 16.8414 63.8245 15.9686 65.9649 15.6987C68.4737 15.3828 70.82 15.855 72.9243 17.2775C75.4631 18.9941 76.839 21.4209 77.141 24.464C77.3268 26.3395 77.0429 28.146 76.1872 29.8218C74.5428 33.0435 71.8641 34.7916 68.2885 35.1998C68.1238 35.2184 67.9576 35.2277 67.7919 35.2334C67.6402 35.239 67.488 35.2344 67.3357 35.2344H67.3362ZM72.8592 25.4147C72.8572 24.1496 72.5588 23.0601 71.9405 22.0624C69.9333 18.8253 65.3502 18.5951 63.0364 21.615C61.4225 23.7213 61.375 26.883 62.9234 29.0703C64.8965 31.8569 68.8815 32.1568 71.2329 29.6814C72.3638 28.4913 72.8613 27.0441 72.8592 25.4141V25.4147Z" fill="#FBBD07"/>
<path d="M115.926 35.24C113.522 35.1956 111.044 34.1608 109.134 31.9156C107.694 30.2233 106.975 28.2305 106.861 26.0241C106.748 23.8321 107.158 21.746 108.336 19.8683C109.978 17.25 112.363 15.8183 115.45 15.6304C118.642 15.4364 121.127 16.7561 123.012 19.2923C123.788 20.3364 124.292 21.5173 124.753 22.7194C124.848 22.9687 124.839 22.9754 124.506 23.1132C122.335 24.0128 120.163 24.9113 117.991 25.8099C116.037 26.6187 114.082 27.4264 112.127 28.2346C112.076 28.2558 112.027 28.2811 111.974 28.2981C111.779 28.3611 111.758 28.4721 111.854 28.6444C112.59 29.9642 113.635 30.9066 115.143 31.2173C117.48 31.6983 119.632 30.9928 121.101 28.9041C121.285 28.6434 121.288 28.6388 121.553 28.8137C122.511 29.446 123.467 30.0808 124.422 30.7167C124.679 30.8875 124.683 30.8968 124.512 31.1244C122.508 33.7953 119.72 35.2544 115.926 35.2394V35.24ZM111.015 25.0961C111.168 25.044 111.259 25.0182 111.346 24.9826C113.972 23.892 116.598 22.8009 119.224 21.7088C119.831 21.4564 119.845 21.4177 119.441 20.8907C118.761 20.0035 117.824 19.5829 116.742 19.4451C114.592 19.171 112.54 20.516 111.645 22.2425C111.191 23.1183 110.991 24.0494 111.015 25.0961Z" fill="#EA4537"/>
<path d="M100.613 20.2027C100.613 15.5566 100.613 10.9104 100.613 6.26482C100.613 5.72909 100.561 5.76315 101.094 5.76419C102.255 5.76573 103.417 5.76728 104.578 5.77296C104.924 5.77451 104.924 5.7807 104.932 6.11205C104.933 6.18121 104.932 6.25037 104.932 6.31953C104.932 15.5839 104.932 24.8483 104.93 34.1127C104.93 34.6928 105.022 34.6453 104.404 34.6464C103.312 34.6484 102.219 34.6469 101.126 34.6464C101.029 34.6464 100.933 34.6417 100.836 34.6453C100.684 34.651 100.601 34.5953 100.611 34.4306C100.617 34.3202 100.611 34.2092 100.611 34.0988C100.611 29.4666 100.611 24.8344 100.611 20.2022L100.613 20.2027Z" fill="#36A954"/>
</svg>
