<svg width="160" height="54" viewBox="0 0 160 54" fill="none" xmlns="http://www.w3.org/2000/svg">
<g clip-path="url(#clip0_1_1334)">
<path d="M3.56921 41.4348H31.8379V12.6989H3.56921V41.4401V41.4348ZM34.8113 41.4348H63.08V12.6989H34.8113V41.4401V41.4348ZM66.0694 41.4348H94.3381V12.6989H66.0694V41.4401V41.4348ZM97.3274 41.4348H125.596V12.6989H97.3274V41.4401V41.4348ZM128.57 41.4348H156.838V12.6989H128.57V41.4401V41.4348Z" fill="#00B67A"/>
<path d="M15.4205 24.9269H7.84888L13.9762 29.4507L11.6347 36.7675L27.6699 24.9269H20.0983L17.7567 17.6049L15.4205 24.9269Z" fill="white"/>
<path d="M17.7567 32.2441L23.8788 36.7679L22.1372 31.3096L17.7567 32.2441Z" fill="white"/>
<path d="M140.421 24.9269H132.849L138.971 29.4507L136.635 36.7675L152.67 24.9269H145.099L142.757 17.6049L140.421 24.9269Z" fill="white"/>
<path d="M142.757 32.2441L148.879 36.7679L147.138 31.3096L142.757 32.2441Z" fill="white"/>
<path d="M109.178 24.9268H101.607L107.734 29.4506L105.392 36.7673L121.428 24.9268H113.856L111.52 17.6047L109.178 24.9268Z" fill="white"/>
<path d="M111.521 32.2441L117.643 36.7679L115.896 31.3096L111.521 32.2441Z" fill="white"/>
<path d="M77.9206 24.9269H70.349L76.4711 29.4507L74.1348 36.7675L90.17 24.9269H82.5984L80.2569 17.6049L77.9206 24.9269Z" fill="white"/>
<path d="M80.257 32.2441L86.379 36.7679L84.6374 31.3096L80.257 32.2441Z" fill="white"/>
<path d="M46.6099 25.0069H38.9215L45.1391 29.5466L42.7657 36.8899L59.0399 25.0069H51.3568L48.978 17.6636L46.6099 25.0069Z" fill="white"/>
<path d="M48.6747 32.2706L54.7702 36.89L53.0339 31.3096L48.6747 32.2706Z" fill="white"/>
<path d="M3.56921 41.4348H31.8379V12.6989H3.56921V41.4401V41.4348ZM34.8113 41.4348H63.08V12.6989H34.8113V41.4401V41.4348ZM66.0694 41.4348H94.3381V12.6989H66.0694V41.4401V41.4348ZM97.3274 41.4348H125.596V12.6989H97.3274V41.4401V41.4348ZM128.57 41.4348H156.838V12.6989H128.57V41.4401V41.4348Z" fill="#00B67A"/>
<path d="M3.56921 41.4348H31.8379V12.6989H3.56921V41.4401V41.4348ZM34.8113 41.4348H63.08V12.6989H34.8113V41.4401V41.4348ZM66.0694 41.4348H94.3381V12.6989H66.0694V41.4401V41.4348ZM97.3274 41.4348H125.596V12.6989H97.3274V41.4401V41.4348ZM128.57 41.4348H142.762V12.6989H128.57V41.4401V41.4348Z" fill="#00B67A"/>
<path d="M15.4205 24.9269H7.84888L13.9762 29.4507L11.6347 36.7675L27.6699 24.9269H20.0983L17.7567 17.6049L15.4205 24.9269Z" fill="white"/>
<path d="M17.7567 32.2441L23.8788 36.7679L22.1372 31.3096L17.7567 32.2441Z" fill="white"/>
<path d="M156.839 12.6989H142.704V41.4401H156.839V12.6989Z" fill="#D1D3D4"/>
<path d="M140.421 24.9269H132.849L138.971 29.4507L136.635 36.7675L152.67 24.9269H145.099L142.757 17.6049L140.421 24.9269Z" fill="white"/>
<path d="M142.757 32.2441L148.879 36.7679L147.138 31.3096L142.757 32.2441Z" fill="white"/>
<path d="M109.178 24.9268H101.607L107.734 29.4506L105.392 36.7673L121.428 24.9268H113.856L111.52 17.6047L109.178 24.9268Z" fill="white"/>
<path d="M111.521 32.2441L117.643 36.7679L115.896 31.3096L111.521 32.2441Z" fill="white"/>
<path d="M77.9206 24.9269H70.349L76.4711 29.4507L74.1348 36.7675L90.17 24.9269H82.5984L80.2569 17.6049L77.9206 24.9269Z" fill="white"/>
<path d="M80.257 32.2441L86.379 36.7679L84.6374 31.3096L80.257 32.2441Z" fill="white"/>
<path d="M46.6099 25.0069H38.9215L45.1391 29.5466L42.7657 36.8899L59.0399 25.0069H51.3568L48.978 17.6636L46.6099 25.0069Z" fill="white"/>
<path d="M48.6747 32.2706L54.7702 36.89L53.0339 31.3096L48.6747 32.2706Z" fill="white"/>
</g>
<defs>
<clipPath id="clip0_1_1334">
<rect width="159.29" height="53.0967" fill="white" transform="translate(0.55896 0.518555)"/>
</clipPath>
</defs>
</svg>
