<svg width="43" height="40" viewBox="0 0 43 40" fill="none" xmlns="http://www.w3.org/2000/svg">
<path d="M16.25 8.92812C15.3682 8.92812 14.5479 9.14857 13.7891 9.58949C13.0303 10.0304 12.4304 10.6303 11.9895 11.3891C11.5486 12.1478 11.3281 12.9682 11.3281 13.85V14.8344H6.46777L6.40625 15.7572L5.36035 34.5219H27.1396L26.0938 15.7572L26.0322 14.8344H21.1719V13.85C21.1719 12.9682 20.9514 12.1478 20.5105 11.3891C20.0696 10.6303 19.4697 10.0304 18.7109 9.58949C17.9521 9.14857 17.1318 8.92812 16.25 8.92812ZM16.25 10.8969C17.0703 10.8969 17.7676 11.184 18.3418 11.7582C18.916 12.3324 19.2031 13.0297 19.2031 13.85V14.8344H13.2969V13.85C13.2969 13.0297 13.584 12.3324 14.1582 11.7582C14.7324 11.184 15.4297 10.8969 16.25 10.8969ZM8.31348 16.8031H11.3281V19.7562H13.2969V16.8031H19.2031V19.7562H21.1719V16.8031H24.1865L25.0479 32.5531H7.45215L8.31348 16.8031Z" fill="#353639"/>
<rect x="17.3" y="0.724991" width="25.2" height="25.2" rx="12.6" fill="#1DA7FB"/>
<path d="M29.4777 14.8412C29.4777 15.6512 29.382 16.2972 29.1906 16.7791C29.0026 17.2577 28.7326 17.6029 28.3805 17.8148C28.0285 18.0233 27.6115 18.1275 27.1295 18.1275C26.6544 18.1275 26.2392 18.0233 25.8837 17.8148C25.5282 17.6029 25.2514 17.2577 25.0531 16.7791C24.8583 16.2972 24.7609 15.6512 24.7609 14.8412V13.6978C24.7609 12.8844 24.8566 12.2418 25.048 11.7701C25.2428 11.2984 25.5163 10.9618 25.8683 10.7601C26.2238 10.5584 26.6408 10.4576 27.1193 10.4576C27.6012 10.4576 28.0182 10.5584 28.3703 10.7601C28.7223 10.9618 28.994 11.2984 29.1854 11.7701C29.3803 12.2418 29.4777 12.8844 29.4777 13.6978V14.8412ZM28.5189 13.5389C28.5189 12.9784 28.466 12.5289 28.36 12.1905C28.2541 11.8521 28.0968 11.6078 27.8883 11.4574C27.6798 11.3036 27.4235 11.2267 27.1193 11.2267C26.8185 11.2267 26.5639 11.3036 26.3554 11.4574C26.1469 11.6078 25.9879 11.8521 25.8786 12.1905C25.7726 12.5289 25.7196 12.9784 25.7196 13.5389V14.9898C25.7196 15.547 25.7743 15.9998 25.8837 16.3485C25.9931 16.6971 26.152 16.9535 26.3605 17.1175C26.5724 17.2782 26.8288 17.3585 27.1295 17.3585C27.4372 17.3585 27.6935 17.2782 27.8986 17.1175C28.1037 16.9535 28.2575 16.6971 28.36 16.3485C28.466 15.9998 28.5189 15.547 28.5189 14.9898V13.5389ZM32.7589 13.8311C33.0871 13.8311 33.3588 13.7747 33.5741 13.662C33.7929 13.5492 33.9552 13.3971 34.0612 13.2057C34.1706 13.0108 34.2252 12.7904 34.2252 12.5443C34.2252 12.2606 34.1774 12.0213 34.0817 11.8265C33.986 11.6283 33.8424 11.4796 33.651 11.3805C33.4596 11.2779 33.2187 11.2267 32.9281 11.2267C32.6615 11.2267 32.4274 11.2796 32.2257 11.3856C32.0241 11.4915 31.8668 11.6402 31.7541 11.8316C31.6413 12.023 31.5849 12.2503 31.5849 12.5135H30.6261C30.6261 12.1307 30.7218 11.7855 30.9132 11.4779C31.1046 11.1668 31.3729 10.919 31.7182 10.7345C32.0634 10.5499 32.4667 10.4576 32.9281 10.4576C33.3793 10.4576 33.7741 10.5379 34.1125 10.6986C34.4508 10.8558 34.714 11.0916 34.902 11.4061C35.09 11.7171 35.184 12.1034 35.184 12.5648C35.184 12.7562 35.1396 12.9579 35.0507 13.1698C34.9652 13.3817 34.8302 13.5816 34.6457 13.7696C34.4645 13.9542 34.2287 14.1063 33.9381 14.2259C33.6476 14.3421 33.299 14.4002 32.8922 14.4002H32.0822V13.8311H32.7589ZM32.0822 14.0362H32.8922C33.3673 14.0362 33.7604 14.0926 34.0714 14.2054C34.3825 14.3182 34.6269 14.4686 34.8046 14.6566C34.9857 14.8412 35.1122 15.0462 35.184 15.2718C35.2592 15.4974 35.2968 15.7213 35.2968 15.9435C35.2968 16.4083 35.1925 16.8031 34.984 17.1278C34.779 17.4525 34.497 17.7003 34.1381 17.8712C33.7826 18.0421 33.381 18.1275 32.9333 18.1275C32.6085 18.1275 32.3026 18.0814 32.0155 17.9891C31.7284 17.8968 31.4755 17.7635 31.2567 17.5892C31.0414 17.4115 30.8722 17.1944 30.7492 16.9381C30.6261 16.6783 30.5646 16.3827 30.5646 16.0511H31.5233C31.5233 16.3109 31.5797 16.5399 31.6925 16.7381C31.8087 16.933 31.9711 17.0851 32.1796 17.1944C32.3915 17.3038 32.6427 17.3585 32.9333 17.3585C33.3673 17.3585 33.7091 17.2423 33.9586 17.0099C34.2116 16.7774 34.338 16.4288 34.338 15.964C34.338 15.6529 34.2731 15.3966 34.1432 15.1949C34.0133 14.9933 33.8305 14.8446 33.5946 14.7489C33.3588 14.6497 33.0802 14.6002 32.7589 14.6002H32.0822V14.0362Z" fill="white"/>
</svg>
