<svg width="32" height="35" viewBox="0 0 32 35" fill="none" xmlns="http://www.w3.org/2000/svg">
<path d="M3.45312 13.7719C3.45312 15.556 3.9043 17.2069 4.80664 18.7245C5.66797 20.2216 6.84717 21.4008 8.34424 22.2621C9.86182 23.1644 11.5127 23.6156 13.2969 23.6156C14.4658 23.6156 15.5784 23.4208 16.6345 23.0311C17.6907 22.6415 18.6494 22.098 19.5107 21.4008L27.355 29.245L28.77 27.83L20.9258 19.9857C21.623 19.1244 22.1665 18.1657 22.5562 17.1095C22.9458 16.0534 23.1406 14.9408 23.1406 13.7719C23.1406 11.9877 22.6895 10.3368 21.7871 8.81923C20.9258 7.32216 19.7466 6.14296 18.2495 5.28163C16.7319 4.37929 15.0811 3.92812 13.2969 3.92812C11.5127 3.92812 9.86182 4.37929 8.34424 5.28163C6.84717 6.14296 5.66797 7.32216 4.80664 8.81923C3.9043 10.3368 3.45312 11.9877 3.45312 13.7719ZM5.42188 13.7719C5.42188 12.3363 5.77563 11.0187 6.48315 9.81898C7.19067 8.61928 8.14429 7.66566 9.34399 6.95815C10.5437 6.25063 11.8613 5.89687 13.2969 5.89687C14.7324 5.89687 16.05 6.25063 17.2498 6.95815C18.4495 7.66566 19.4031 8.61928 20.1106 9.81898C20.8181 11.0187 21.1719 12.3363 21.1719 13.7719C21.1719 15.2074 20.8181 16.525 20.1106 17.7247C19.4031 18.9245 18.4495 19.8781 17.2498 20.5856C16.05 21.2931 14.7324 21.6469 13.2969 21.6469C11.8613 21.6469 10.5437 21.2931 9.34399 20.5856C8.14429 19.8781 7.19067 18.9245 6.48315 17.7247C5.77563 16.525 5.42188 15.2074 5.42188 13.7719Z" fill="#353639"/>
</svg>
