<svg width="33" height="33" viewBox="0 0 33 33" fill="none" xmlns="http://www.w3.org/2000/svg">
<path d="M23.3408 4.81006C23.1768 4.81006 23.0229 4.83057 22.8794 4.87158L6.8833 9.08594C6.22705 9.25 5.69385 9.59863 5.28369 10.1318C4.87354 10.665 4.66846 11.27 4.66846 11.9468V25.4819C4.66846 26.2817 4.96069 26.9739 5.54517 27.5583C6.12964 28.1428 6.82178 28.4351 7.62158 28.4351H25.3403C26.1401 28.4351 26.8323 28.1428 27.4167 27.5583C28.0012 26.9739 28.2935 26.2817 28.2935 25.4819V12.6851C28.2935 11.8853 28.0012 11.1931 27.4167 10.6086C26.8323 10.0242 26.1401 9.73193 25.3403 9.73193H12.1743L23.3716 6.77881V8.74756H25.3403V6.77881C25.3403 6.2251 25.1404 5.75854 24.7405 5.37915C24.3406 4.99976 23.874 4.81006 23.3408 4.81006ZM7.62158 11.7007H25.3403C25.6274 11.7007 25.8633 11.793 26.0479 11.9775C26.2324 12.1621 26.3247 12.3979 26.3247 12.6851V25.4819C26.3247 25.769 26.2324 26.0049 26.0479 26.1895C25.8633 26.374 25.6274 26.4663 25.3403 26.4663H7.62158C7.33447 26.4663 7.09863 26.374 6.91406 26.1895C6.72949 26.0049 6.63721 25.769 6.63721 25.4819V12.6851C6.63721 12.3979 6.72949 12.1621 6.91406 11.9775C7.09863 11.793 7.33447 11.7007 7.62158 11.7007ZM22.8794 17.6069C22.4692 17.6069 22.1206 17.7505 21.8335 18.0376C21.5464 18.3247 21.4028 18.6733 21.4028 19.0835C21.4028 19.4937 21.5464 19.8423 21.8335 20.1294C22.1206 20.4165 22.4692 20.5601 22.8794 20.5601C23.2896 20.5601 23.6382 20.4165 23.9253 20.1294C24.2124 19.8423 24.356 19.4937 24.356 19.0835C24.356 18.6733 24.2124 18.3247 23.9253 18.0376C23.6382 17.7505 23.2896 17.6069 22.8794 17.6069Z" fill="#5F6680"/>
</svg>
