<svg width="33" height="33" viewBox="0 0 33 33" fill="none" xmlns="http://www.w3.org/2000/svg">
<path d="M0.730972 6.77881V8.74756H19.4341V23.5132H13.374C13.1485 22.6519 12.687 21.9443 11.9898 21.3906C11.2925 20.8369 10.4927 20.5601 9.59035 20.5601C8.688 20.5601 7.8882 20.8369 7.19093 21.3906C6.49367 21.9443 6.03224 22.6519 5.80666 23.5132H4.66847V18.5913H2.69972V25.4819H5.80666C6.03224 26.3433 6.49367 27.0508 7.19093 27.6045C7.8882 28.1582 8.688 28.4351 9.59035 28.4351C10.4927 28.4351 11.2925 28.1582 11.9898 27.6045C12.687 27.0508 13.1485 26.3433 13.374 25.4819H21.5567C21.7822 26.3433 22.2437 27.0508 22.9409 27.6045C23.6382 28.1582 24.438 28.4351 25.3403 28.4351C26.2427 28.4351 27.0425 28.1582 27.7398 27.6045C28.437 27.0508 28.8985 26.3433 29.124 25.4819H32.231V17.4531L32.1694 17.2993L29.9854 10.7163H21.4028V6.77881H0.730972ZM1.71535 10.7163V12.6851H10.5747V10.7163H1.71535ZM21.4028 12.6851H28.5703L30.2622 17.73V23.5132H29.124C28.8985 22.6519 28.437 21.9443 27.7398 21.3906C27.0425 20.8369 26.2427 20.5601 25.3403 20.5601C24.438 20.5601 23.6382 20.8369 22.9409 21.3906C22.2437 21.9443 21.7822 22.6519 21.5567 23.5132H21.4028V12.6851ZM2.69972 14.6538V16.6226H8.60597V14.6538H2.69972ZM9.59035 22.5288C10.1441 22.5288 10.6106 22.7185 10.99 23.0979C11.3694 23.4773 11.5591 23.9438 11.5591 24.4976C11.5591 25.0513 11.3694 25.5178 10.99 25.8972C10.6106 26.2766 10.1441 26.4663 9.59035 26.4663C9.03664 26.4663 8.57008 26.2766 8.19069 25.8972C7.81129 25.5178 7.6216 25.0513 7.6216 24.4976C7.6216 23.9438 7.81129 23.4773 8.19069 23.0979C8.57008 22.7185 9.03664 22.5288 9.59035 22.5288ZM25.3403 22.5288C25.8941 22.5288 26.3606 22.7185 26.74 23.0979C27.1194 23.4773 27.3091 23.9438 27.3091 24.4976C27.3091 25.0513 27.1194 25.5178 26.74 25.8972C26.3606 26.2766 25.8941 26.4663 25.3403 26.4663C24.7866 26.4663 24.3201 26.2766 23.9407 25.8972C23.5613 25.5178 23.3716 25.0513 23.3716 24.4976C23.3716 23.9438 23.5613 23.4773 23.9407 23.0979C24.3201 22.7185 24.7866 22.5288 25.3403 22.5288Z" fill="#5F6680"/>
</svg>
