<svg width="32" height="33" viewBox="0 0 32 33" fill="none" xmlns="http://www.w3.org/2000/svg">
<path d="M15.925 3.82568C13.9768 3.82568 12.1619 4.31787 10.4802 5.30225C8.8396 6.26611 7.53735 7.56836 6.57349 9.20898C5.58911 10.8906 5.09692 12.7056 5.09692 14.6538V20.5601C5.09692 21.1958 5.28149 21.7649 5.65063 22.2673C6.01978 22.7698 6.49146 23.1235 7.06567 23.3286V23.5132C7.06567 24.395 7.28613 25.2153 7.72705 25.9741C8.16797 26.7329 8.76782 27.3328 9.52661 27.7737C10.2854 28.2146 11.1057 28.4351 11.9875 28.4351H13.2488C13.4333 28.7427 13.6743 28.9836 13.9717 29.158C14.269 29.3323 14.592 29.4194 14.9407 29.4194H16.9094C17.4426 29.4194 17.9041 29.2246 18.2937 28.835C18.6833 28.4453 18.8782 27.9839 18.8782 27.4507C18.8782 26.9175 18.6833 26.4561 18.2937 26.0664C17.9041 25.6768 17.4426 25.4819 16.9094 25.4819H14.9407C14.592 25.4819 14.269 25.5691 13.9717 25.7434C13.6743 25.9177 13.4333 26.1587 13.2488 26.4663H11.9875C11.1672 26.4663 10.47 26.1792 9.89575 25.605C9.32153 25.0308 9.03442 24.3335 9.03442 23.5132H11.0032V14.6538H7.06567C7.06567 13.0542 7.46558 11.5674 8.26538 10.1934C9.06519 8.86035 10.1316 7.79395 11.4646 6.99414C12.8386 6.19434 14.3254 5.79443 15.925 5.79443C17.5247 5.79443 19.0115 6.19434 20.3855 6.99414C21.7185 7.79395 22.7849 8.86035 23.5847 10.1934C24.3845 11.5674 24.7844 13.0542 24.7844 14.6538H20.8469V23.5132H23.8C24.5999 23.5132 25.292 23.2209 25.8765 22.6365C26.4609 22.052 26.7532 21.3599 26.7532 20.5601V14.6538C26.7532 12.7056 26.261 10.8906 25.2766 9.20898C24.3127 7.56836 23.0105 6.26611 21.3699 5.30225C19.6882 4.31787 17.8733 3.82568 15.925 3.82568ZM7.06567 16.6226H9.03442V21.5444H8.05005C7.78345 21.5444 7.55273 21.447 7.35791 21.2522C7.16309 21.0574 7.06567 20.8267 7.06567 20.5601V16.6226ZM22.8157 16.6226H24.7844V20.5601C24.7844 20.8267 24.687 21.0574 24.4922 21.2522C24.2974 21.447 24.0667 21.5444 23.8 21.5444H22.8157V16.6226Z" fill="#5F6680"/>
</svg>
