<svg width="26" height="26" viewBox="0 0 26 26" fill="none" xmlns="http://www.w3.org/2000/svg">
<path d="M17.325 2.2832C16.4719 2.2832 15.6844 2.49648 14.9625 2.92305C14.2406 3.34961 13.6664 3.92383 13.2398 4.6457C12.8133 5.36758 12.6 6.15508 12.6 7.0082C12.6 7.36914 12.6656 7.76289 12.7969 8.18945C12.8953 8.53398 13.0594 8.96055 13.2891 9.46914C13.65 10.3059 14.1094 11.2 14.6672 12.1516C15.3398 13.3 16.0125 14.3582 16.6852 15.3262L17.325 16.2613L18.6047 14.391C19.1133 13.6199 19.5727 12.8734 19.9828 12.1516C20.5406 11.2 21 10.3059 21.3609 9.46914C21.5906 8.96055 21.7547 8.53398 21.8531 8.18945C21.9844 7.76289 22.05 7.36914 22.05 7.0082C22.05 6.15508 21.8367 5.36758 21.4102 4.6457C20.9836 3.92383 20.4094 3.34961 19.6875 2.92305C18.9656 2.49648 18.1781 2.2832 17.325 2.2832ZM9.42539 3.80898L3.15 6.49141V21.6016L9.47461 18.8699L15.7746 21.2324L22.05 18.55V11.684C21.6398 12.4715 21.1148 13.3738 20.475 14.391V17.5164L16.5375 19.1898V17.9102L14.9625 15.6215V19.2637L10.2375 17.4918V5.77773L11.0988 6.09766C11.1809 5.55625 11.3203 5.04766 11.5172 4.57187L9.42539 3.80898ZM17.325 3.8582C17.8992 3.8582 18.4283 3.99766 18.9123 4.27656C19.3963 4.55547 19.7777 4.93691 20.0566 5.4209C20.3355 5.90488 20.475 6.43398 20.475 7.0082C20.475 7.17227 20.4258 7.42246 20.3273 7.75879C20.2289 8.09512 20.0977 8.45195 19.9336 8.8293C19.6383 9.50195 19.1953 10.3469 18.6047 11.3641C18.2273 12.0039 17.8418 12.6191 17.448 13.2098L17.325 13.4066L17.202 13.2098C16.8082 12.6191 16.4227 12.0039 16.0453 11.3641C15.4547 10.3469 15.0117 9.50195 14.7164 8.8293C14.5523 8.45195 14.4211 8.09512 14.3227 7.75879C14.2242 7.42246 14.175 7.17227 14.175 7.0082C14.175 6.43398 14.3145 5.90488 14.5934 5.4209C14.8723 4.93691 15.2537 4.55547 15.7377 4.27656C16.2217 3.99766 16.7508 3.8582 17.325 3.8582ZM8.6625 5.82695V17.5164L4.725 19.1898V7.525L8.6625 5.82695ZM17.325 5.82695C16.9969 5.82695 16.718 5.9418 16.4883 6.17148C16.2586 6.40117 16.1438 6.68008 16.1438 7.0082C16.1438 7.33633 16.2586 7.61523 16.4883 7.84492C16.718 8.07461 16.9969 8.18945 17.325 8.18945C17.6531 8.18945 17.932 8.07461 18.1617 7.84492C18.3914 7.61523 18.5063 7.33633 18.5063 7.0082C18.5063 6.68008 18.3914 6.40117 18.1617 6.17148C17.932 5.9418 17.6531 5.82695 17.325 5.82695Z" fill="#1DA7FB"/>
</svg>
