<svg width="26" height="26" viewBox="0 0 26 26" fill="none" xmlns="http://www.w3.org/2000/svg">
<path d="M14.9625 0.420801V1.9958C16.5211 1.9958 17.9812 2.38955 19.343 3.17705C20.6391 3.94814 21.6727 4.98174 22.4437 6.27783C23.2312 7.63955 23.625 9.09971 23.625 10.6583H25.2C25.2 8.80439 24.7324 7.08174 23.7973 5.49033C22.8949 3.94814 21.6727 2.72588 20.1305 1.82354C18.5391 0.88838 16.8164 0.420801 14.9625 0.420801ZM6.81679 2.7833C6.37383 2.7833 5.98828 2.92275 5.66015 3.20166L3.12539 5.78564L3.19922 5.73643C2.78906 6.08096 2.52246 6.50752 2.39941 7.01611C2.27636 7.52471 2.30507 8.0169 2.48554 8.49268C2.94492 9.77236 3.56015 11.0849 4.33125 12.4302C5.41406 14.2841 6.70195 15.9493 8.19492 17.4259C10.5902 19.8376 13.568 21.7407 17.1281 23.1353H17.1527C17.6285 23.2993 18.1084 23.3321 18.5924 23.2337C19.0764 23.1353 19.507 22.922 19.8844 22.5938L22.3699 20.1083C22.698 19.7802 22.8621 19.3741 22.8621 18.8901C22.8621 18.4062 22.698 18.0001 22.3699 17.672L19.1461 14.4235C18.818 14.0954 18.4078 13.9313 17.9156 13.9313C17.4234 13.9313 17.0133 14.0954 16.6852 14.4235L15.1348 15.9985C13.8879 15.4079 12.8051 14.6737 11.8863 13.796C10.9676 12.9183 10.2375 11.8478 9.69609 10.5845L11.2711 9.00947C11.6156 8.64854 11.7879 8.21787 11.7879 7.71748C11.7879 7.21709 11.591 6.81104 11.1973 6.49932L11.2711 6.57314L7.97343 3.20166C7.64531 2.92275 7.25976 2.7833 6.81679 2.7833ZM14.9625 3.5708V5.1458C15.9633 5.1458 16.8861 5.3919 17.7311 5.88408C18.576 6.37627 19.2445 7.04482 19.7367 7.88975C20.2289 8.73467 20.475 9.65752 20.475 10.6583H22.05C22.05 9.37861 21.7301 8.18916 21.0902 7.08994C20.4504 6.02354 19.5973 5.17041 18.5309 4.53057C17.4316 3.89072 16.2422 3.5708 14.9625 3.5708ZM6.81679 4.3583C6.86601 4.3583 6.92343 4.38291 6.98906 4.43213L10.2129 7.72979C10.2293 7.79541 10.2129 7.85283 10.1637 7.90205L7.82578 10.2153L7.99804 10.7075L8.31797 11.3966C8.58047 11.9544 8.88398 12.4958 9.22851 13.0208C9.70429 13.7591 10.2293 14.3907 10.8035 14.9157C11.5746 15.6704 12.5016 16.3595 13.5844 16.9829C14.1258 17.2946 14.5852 17.5243 14.9625 17.672L15.4547 17.8935L17.8418 15.5063C17.8746 15.4735 17.8992 15.4571 17.9156 15.4571C17.932 15.4571 17.9566 15.4735 17.9894 15.5063L21.3117 18.8286C21.3445 18.8614 21.3609 18.8819 21.3609 18.8901C21.3609 18.8983 21.3445 18.9188 21.3117 18.9517L18.8508 21.388C18.4898 21.6997 18.0961 21.7817 17.6695 21.6341C14.3227 20.338 11.5336 18.5661 9.30234 16.3185C7.92422 14.9403 6.71836 13.3735 5.68476 11.6181C4.94648 10.3548 4.37226 9.13252 3.96211 7.95127V7.92666C3.89648 7.77901 3.88828 7.60264 3.9375 7.39756C3.98672 7.19248 4.07695 7.03252 4.2082 6.91768L6.64453 4.43213C6.69375 4.38291 6.75117 4.3583 6.81679 4.3583ZM14.9625 6.7208V8.2958C15.6187 8.2958 16.1766 8.52549 16.6359 8.98486C17.0953 9.44424 17.325 10.0021 17.325 10.6583H18.9C18.9 9.95283 18.7236 9.29658 18.3709 8.68955C18.0182 8.08252 17.5383 7.60264 16.9312 7.2499C16.3242 6.89717 15.668 6.7208 14.9625 6.7208Z" fill="#1DA7FB"/>
</svg>
