<svg width="18" height="18" viewBox="0 0 18 18" fill="none" xmlns="http://www.w3.org/2000/svg">
<path d="M6.71287 3.24541C6.10037 3.24541 5.53435 3.39853 5.01482 3.70478C4.49529 4.01103 4.0824 4.42393 3.77615 4.94346C3.4699 5.46299 3.31677 6.029 3.31677 6.6415V11.3993C3.31677 12.0118 3.4699 12.5778 3.77615 13.0974C4.0824 13.6169 4.49529 14.0298 5.01482 14.336C5.53435 14.6423 6.10037 14.7954 6.71287 14.7954H11.4707C12.0832 14.7954 12.6492 14.6423 13.1687 14.336C13.6883 14.0298 14.1011 13.6169 14.4074 13.0974C14.7136 12.5778 14.8668 12.0118 14.8668 11.3993V6.6415C14.8668 6.029 14.7136 5.46299 14.4074 4.94346C14.1011 4.42393 13.6883 4.01103 13.1687 3.70478C12.6492 3.39853 12.0832 3.24541 11.4707 3.24541H6.71287ZM6.71287 4.29541H11.4707C11.8972 4.29541 12.291 4.39932 12.6519 4.60713C13.0129 4.81494 13.2972 5.09932 13.5051 5.46025C13.7129 5.82119 13.8168 6.21494 13.8168 6.6415V11.3993C13.8168 11.8259 13.7129 12.2196 13.5051 12.5806C13.2972 12.9415 13.0129 13.2259 12.6519 13.4337C12.291 13.6415 11.8972 13.7454 11.4707 13.7454H6.71287C6.2863 13.7454 5.89255 13.6415 5.53162 13.4337C5.17068 13.2259 4.8863 12.9415 4.67849 12.5806C4.47068 12.2196 4.36677 11.8259 4.36677 11.3993V6.6415C4.36677 6.21494 4.47068 5.82119 4.67849 5.46025C4.8863 5.09932 5.17068 4.81494 5.53162 4.60713C5.89255 4.39932 6.2863 4.29541 6.71287 4.29541ZM12.1926 5.44385C12.0613 5.44385 11.9492 5.49033 11.8562 5.5833C11.7633 5.67627 11.7168 5.78838 11.7168 5.91963C11.7168 6.05088 11.7633 6.16299 11.8562 6.25596C11.9492 6.34893 12.0613 6.39541 12.1926 6.39541C12.3238 6.39541 12.4359 6.34893 12.5289 6.25596C12.6219 6.16299 12.6683 6.05088 12.6683 5.91963C12.6683 5.78838 12.6219 5.67627 12.5289 5.5833C12.4359 5.49033 12.3238 5.44385 12.1926 5.44385ZM9.09177 5.87041C8.52302 5.87041 7.99802 6.0126 7.51677 6.29697C7.03552 6.58135 6.65271 6.96416 6.36834 7.44541C6.08396 7.92666 5.94177 8.45166 5.94177 9.02041C5.94177 9.58916 6.08396 10.1142 6.36834 10.5954C6.65271 11.0767 7.03552 11.4595 7.51677 11.7438C7.99802 12.0282 8.52302 12.1704 9.09177 12.1704C9.66052 12.1704 10.1855 12.0282 10.6668 11.7438C11.148 11.4595 11.5308 11.0767 11.8152 10.5954C12.0996 10.1142 12.2418 9.58916 12.2418 9.02041C12.2418 8.45166 12.0996 7.92666 11.8152 7.44541C11.5308 6.96416 11.148 6.58135 10.6668 6.29697C10.1855 6.0126 9.66052 5.87041 9.09177 5.87041ZM9.09177 6.92041C9.47459 6.92041 9.82732 7.01338 10.15 7.19932C10.4726 7.38525 10.7269 7.63955 10.9129 7.96221C11.0988 8.28486 11.1918 8.6376 11.1918 9.02041C11.1918 9.40322 11.0988 9.75596 10.9129 10.0786C10.7269 10.4013 10.4726 10.6556 10.15 10.8415C9.82732 11.0274 9.47459 11.1204 9.09177 11.1204C8.70896 11.1204 8.35623 11.0274 8.03357 10.8415C7.71091 10.6556 7.45662 10.4013 7.27068 10.0786C7.08474 9.75596 6.99177 9.40322 6.99177 9.02041C6.99177 8.6376 7.08474 8.28486 7.27068 7.96221C7.45662 7.63955 7.71091 7.38525 8.03357 7.19932C8.35623 7.01338 8.70896 6.92041 9.09177 6.92041Z" fill="white"/>
</svg>
