<svg width="17" height="18" viewBox="0 0 17 18" fill="none" xmlns="http://www.w3.org/2000/svg">
<path d="M8.64102 2.72022C7.7332 2.72022 6.87461 2.91162 6.06523 3.29443C5.25586 3.67725 4.61055 4.20772 4.1293 4.88584C3.6043 5.61865 3.3418 6.4499 3.3418 7.37959C3.3418 7.94834 3.44023 8.4624 3.63711 8.92178C3.80117 9.32647 4.01992 9.65459 4.29336 9.90615C4.53398 10.1249 4.76914 10.2343 4.99883 10.2343C5.1082 10.2343 5.20664 10.1085 5.29414 9.85693C5.35977 9.64912 5.39258 9.46865 5.39258 9.31553C5.39258 9.26084 5.34336 9.15146 5.24492 8.9874C5.10273 8.75772 5.0043 8.56631 4.94961 8.41318C4.84023 8.13975 4.78555 7.85537 4.78555 7.56006C4.78555 6.871 4.94414 6.25576 5.26133 5.71436C5.57852 5.17295 6.01602 4.74912 6.57383 4.44287C7.13164 4.13662 7.74961 3.9835 8.42773 3.9835C9.34648 3.9835 10.0793 4.22959 10.6262 4.72178C11.2168 5.23584 11.5121 5.94131 11.5121 6.83818C11.5121 7.38506 11.441 7.93193 11.2988 8.47881C11.1348 9.15693 10.8887 9.69287 10.5605 10.0866C10.1777 10.5679 9.71289 10.8085 9.16602 10.8085C8.83789 10.8085 8.55625 10.7019 8.32109 10.4886C8.08594 10.2753 7.96836 10.0046 7.96836 9.67647C7.96836 9.45772 8.00117 9.21162 8.0668 8.93818C8.09961 8.78506 8.16797 8.54443 8.27188 8.21631C8.37578 7.88818 8.44961 7.64209 8.49336 7.47803C8.55898 7.20459 8.5918 6.95303 8.5918 6.72334C8.5918 6.31865 8.46602 6.0124 8.21445 5.80459C7.9957 5.62959 7.725 5.5749 7.40234 5.64053C7.07969 5.70615 6.80352 5.88115 6.57383 6.16553C6.3332 6.49365 6.21289 6.90381 6.21289 7.396C6.21289 7.93193 6.29492 8.36943 6.45898 8.7085L6.27852 9.47959C6.01602 10.5624 5.83008 11.3882 5.7207 11.9569C5.53477 12.9304 5.4418 13.7124 5.4418 14.303C5.4418 14.5437 5.46914 14.9101 5.52383 15.4022L5.55664 15.7632L5.58945 15.8124C5.61133 15.8343 5.625 15.8452 5.63047 15.8452C5.63594 15.8452 5.65508 15.8397 5.68789 15.8288L5.73711 15.8124C6.07617 15.353 6.3332 14.9483 6.5082 14.5983C6.6832 14.2812 6.82539 13.9421 6.93477 13.5812C7.00039 13.3515 7.09883 12.9632 7.23008 12.4163C7.33945 11.9022 7.43789 11.4812 7.52539 11.153C7.66758 11.4483 7.92461 11.6835 8.29648 11.8585C8.62461 12.0116 8.96367 12.0882 9.31367 12.0882C10.1887 12.0882 10.9434 11.8257 11.5777 11.3007C12.1465 10.8413 12.584 10.2015 12.8902 9.38115C13.1746 8.6374 13.3168 7.84443 13.3168 7.00225C13.3168 6.16006 13.0926 5.40537 12.6441 4.73818C12.2285 4.10381 11.6625 3.60889 10.9461 3.25342C10.2297 2.89795 9.46133 2.72022 8.64102 2.72022Z" fill="white"/>
</svg>
