<svg width="17" height="18" viewBox="0 0 17 18" fill="none" xmlns="http://www.w3.org/2000/svg">
<path d="M14.8917 5.11572C14.4214 5.32353 13.9292 5.46025 13.4152 5.52588C13.6777 5.36182 13.9074 5.15674 14.1042 4.91064C14.3011 4.66455 14.4488 4.38838 14.5472 4.08213C14.0332 4.38838 13.4863 4.60166 12.9066 4.72197C12.666 4.45947 12.3816 4.25713 12.0535 4.11494C11.7253 3.97275 11.3808 3.90166 11.0199 3.90166C10.5496 3.90166 10.1175 4.0165 9.72378 4.24619C9.33003 4.47588 9.01558 4.79033 8.78042 5.18955C8.54526 5.58877 8.42769 6.01807 8.42769 6.47744C8.42769 6.68525 8.44956 6.88213 8.49331 7.06807C7.44331 7.02432 6.448 6.75635 5.50737 6.26416C4.59956 5.80478 3.81753 5.17588 3.16128 4.37744C2.93159 4.77119 2.81675 5.20322 2.81675 5.67353C2.81675 6.11103 2.92065 6.52119 3.12847 6.904C3.33628 7.28682 3.61519 7.59307 3.96519 7.82275C3.54956 7.81182 3.16128 7.70244 2.80034 7.49463V7.52744C2.80034 8.15088 2.99722 8.70049 3.39097 9.17627C3.78472 9.65205 4.2769 9.9501 4.86753 10.0704C4.64878 10.1251 4.42456 10.1524 4.19487 10.1524C4.03081 10.1524 3.86675 10.1415 3.70269 10.1196C3.86675 10.6337 4.17026 11.0575 4.61323 11.3911C5.0562 11.7247 5.55659 11.897 6.1144 11.9079C5.66597 12.2579 5.16831 12.5313 4.62144 12.7282C4.07456 12.9251 3.50581 13.0235 2.91519 13.0235C2.70737 13.0126 2.49956 12.9962 2.29175 12.9743C2.87144 13.3462 3.49487 13.6306 4.16206 13.8274C4.84019 14.0353 5.53472 14.1392 6.24565 14.1392C7.39409 14.1392 8.44956 13.9149 9.41206 13.4665C10.2871 13.0618 11.0527 12.4876 11.7089 11.7438C12.3214 11.0548 12.7972 10.2673 13.1363 9.38135C13.4535 8.51728 13.6121 7.65322 13.6121 6.78916L13.5957 6.44463C14.1097 6.08369 14.5417 5.64072 14.8917 5.11572Z" fill="white"/>
</svg>
