<svg width="32" height="33" viewBox="0 0 32 33" fill="none" xmlns="http://www.w3.org/2000/svg">
<path d="M16.25 3.92812C15.3682 3.92812 14.5479 4.14857 13.7891 4.58949C13.0303 5.03041 12.4304 5.63026 11.9895 6.38905C11.5486 7.14784 11.3281 7.96815 11.3281 8.84999V9.83437H6.46777L6.40625 10.7572L5.36035 29.5219H27.1396L26.0938 10.7572L26.0322 9.83437H21.1719V8.84999C21.1719 7.96815 20.9514 7.14784 20.5105 6.38905C20.0696 5.63026 19.4697 5.03041 18.7109 4.58949C17.9521 4.14857 17.1318 3.92812 16.25 3.92812ZM16.25 5.89687C17.0703 5.89687 17.7676 6.18398 18.3418 6.75819C18.916 7.33241 19.2031 8.02968 19.2031 8.84999V9.83437H13.2969V8.84999C13.2969 8.02968 13.584 7.33241 14.1582 6.75819C14.7324 6.18398 15.4297 5.89687 16.25 5.89687ZM8.31348 11.8031H11.3281V14.7562H13.2969V11.8031H19.2031V14.7562H21.1719V11.8031H24.1865L25.0479 27.5531H7.45215L8.31348 11.8031Z" fill="#353639"/>
</svg>
