<svg width="32" height="33" viewBox="0 0 32 33" fill="none" xmlns="http://www.w3.org/2000/svg">
<path d="M16.25 5.89687C14.999 5.89687 13.8455 6.20448 12.7893 6.81972C11.7332 7.43495 10.8975 8.27065 10.2822 9.3268C9.66699 10.3829 9.35938 11.5365 9.35938 12.7875C9.35938 13.9564 9.6311 15.0434 10.1746 16.0482C10.718 17.0531 11.4614 17.8734 12.4048 18.5092C11.2358 19.0219 10.1951 19.7294 9.28247 20.6317C8.36987 21.5341 7.66748 22.5697 7.17529 23.7387C6.6626 24.9486 6.40625 26.2201 6.40625 27.5531H8.375C8.375 26.1176 8.72876 24.7999 9.43628 23.6002C10.1438 22.4005 11.0974 21.4469 12.2971 20.7394C13.4968 20.0319 14.8145 19.6781 16.25 19.6781C17.6855 19.6781 19.0032 20.0319 20.2029 20.7394C21.4026 21.4469 22.3562 22.4005 23.0637 23.6002C23.7712 24.7999 24.125 26.1176 24.125 27.5531H26.0938C26.0938 26.2201 25.8374 24.9486 25.3247 23.7387C24.8325 22.5697 24.1301 21.5341 23.2175 20.6317C22.3049 19.7294 21.2642 19.0219 20.0952 18.5092C21.0386 17.8734 21.782 17.0531 22.3254 16.0482C22.8689 15.0434 23.1406 13.9564 23.1406 12.7875C23.1406 11.5365 22.833 10.3829 22.2178 9.3268C21.6025 8.27065 20.7668 7.43495 19.7107 6.81972C18.6545 6.20448 17.501 5.89687 16.25 5.89687ZM16.25 7.86562C17.1523 7.86562 17.9778 8.08607 18.7263 8.52699C19.4749 8.96791 20.0696 9.56264 20.5105 10.3112C20.9514 11.0597 21.1719 11.8851 21.1719 12.7875C21.1719 13.6898 20.9514 14.5153 20.5105 15.2638C20.0696 16.0123 19.4749 16.6071 18.7263 17.048C17.9778 17.4889 17.1523 17.7094 16.25 17.7094C15.3477 17.7094 14.5222 17.4889 13.7737 17.048C13.0251 16.6071 12.4304 16.0123 11.9895 15.2638C11.5486 14.5153 11.3281 13.6898 11.3281 12.7875C11.3281 11.8851 11.5486 11.0597 11.9895 10.3112C12.4304 9.56264 13.0251 8.96791 13.7737 8.52699C14.5222 8.08607 15.3477 7.86562 16.25 7.86562Z" fill="#353639"/>
</svg>
